<svg xmlns="http://www.w3.org/2000/svg" fill="none" viewBox="0 0 31000 22000"><path d="m29651 11925-9404 9000a1377 1377 0 01-945 360 1374 1374 0 01-938-376 1260 1260 0 01-394-898 1257 1257 0 01 377-904l7111-6805H1832c-356 0-698-136-950-377a1258 1258 0 01-393-910c0-340 141-667 393-908s594-377 950-377h23626l-7110-6805a1287 1287 0 01-302-417 1240 1240 0 01 285-1417c126-120 276-216 440-280a1396 1396 0 01 1040 10c164 68 312 166 436 289l9404 9000c252 240 393 568 393 909 0 340-140 668-393 909Z" fill="#fff"/></svg>
