<svg xmlns="http://www.w3.org/2000/svg" fill="none" viewBox="0 0 5300 5200"><path d="M2120 102a200 200 0 00-266.8-79.8A200 200 0 00 1778 90L166 2560l-12 22a1800 1800 0 00 154 1722A1816 1816 0 00 1836 5200a1818 1818 0 00 1530-896 1800 1800 0 00 146-1732L2120 102Zm906 4000A1420 1420 0 01 1836 4800a1424 1424 0 01-1190-708 1400 1400 0 01-138-1324L1934 584l1224 2174a1400 1400 0 01-132 1334v10Zm2200-2376-10-16-500-800a200 200 0 00-340 0l-498 800a110 110 0 00-10 16 742 742 0 10 1358 0Zm-400 490a316.1 316.1 0 01-562 0 338 338 0 01-42-306l322-520 324 520a344 344 0 01-44 290l2 16Z" fill="#004CBF"/></svg>
