<svg xmlns="http://www.w3.org/2000/svg" fill="none" viewBox="0 0 550 480"><path d="M545.2 163.8a160 160 0 01-47.2 113.8L329.8 445.8a158.37 158.37 0 01-39 28.4h-5a20.9 20.9 0 01-5 0 20.9 20.9 0 01-5 0h-5a158.4 158.4 0 01-40-28.4l-105-104.4a20.08 20.08 0 11 28.4-28.4l104.4 104.4c6.4 6.42 13.59 12 21.4 16.6 7.81-4.6 15-10.17 21.4-16.6l168.2-168.2a120.91 120.91 0 10-171-171l-4.4 4.4a20 20 0 01-20 4.8h-2.8l-2.8-2a24.39 24.39 0 01-3.8-2.4l-4.4-4.4A121 121 0 00 54.8 160a20 20 0 11-40 0A160 160 0 01 280 41a160 160 0 01 265.2 122.8ZM133 272.2 175 180l33 125.4a20 20 0 00 18.4 15 20 20 0 00 18.6-13l39-103.4 18.4 27.4A20 20 0 00 320 240h60a20 20 0 00 0-40h-49.2l-34.2-51a20 20 0 00-28.91-4.75 20 20 0 00-6.49 8.75l-30.4 81.2L200 115a20 20 0 00-18.4-15 20 20 0 00-20 11.8L117.2 210A20 20 0 00 100 200H20a20 20 0 00 0 40h65.6l10.2 30.4a20 20 0 00 37.2 1.8Z" fill="#004CBF"/></svg>
