<svg xmlns="http://www.w3.org/2000/svg" fill="none" viewBox="0 0 560 520"><path d="M540 0H20a20 20 0 00-20 20v420a20 20 0 00 20 20h520a20 20 0 00 20-20V20a20 20 0 00-20-20Zm-20 420H40V40h480v380ZM80 400h400a20 20 0 00 20-20V80a20 20 0 00-20-20H80a20 20 0 00-20 20v300a20 20 0 00 20 20Zm20-300h360v260H100V100Zm340 120a20 20 0 01-20 20h-40a20 20 0 01-17.8-11l-2.2-4.2-42.2 84.2A20 20 0 01 300 320a20 20 0 01-17.8-12.2L233.8 195l-39 40A20 20 0 01 180 240h-40a20 20 0 01 0-40h31.8l54-54.2a20 20 0 01 18-5.4 19.99 19.99 0 01 14.6 11.8l43 100 40-81.4a20 20 0 01 35.6 0L392.4 200H420a20 20 0 01 20 20Zm-60 280a20 20 0 01-20 20H180a20 20 0 01 0-40h180a20 20 0 01 20 20Z" fill="#004CBF"/></svg>
