<svg xmlns="http://www.w3.org/2000/svg" fill="none" viewBox="0 0 520 550"><path d="M120 260a20 20 0 01-20-20v-20H80a20 20 0 11 0-40h20v-20a20 20 0 01 40 0v20h20a20 20 0 01 0 40h-20v20a20 20 0 01-20 20Zm400 110v40a60 60 0 01-40 56.4V490a20 20 0 01-40 0v-23.6A60 60 0 01 400 410v-40a60 60 0 01 40-56.6 19.9 19.9 0 01 0-3.4V210a40 40 0 10-80 0v220a120 120 0 01-120 120 140 140 0 01-140-140v-30H70.4A70.6 70.6 0 01 0 309.6v-200A70.6 70.6 0 01 70.4 40H100V20a20 20 0 11 40 0v20h29.6A70.6 70.6 0 01 240 110.4v200A70.6 70.6 0 01 169.6 380H140v30a100 100 0 00 100 100 80 80 0 00 80-80V210a80 80 0 01 160 0v100c.1 1.13.1 2.27 0 3.4A60 60 0 01 520 370ZM70.4 340h100A30.4 30.4 0 00 200 309.6v-200A30.4 30.4 0 00 169.6 80h-100A30.4 30.4 0 00 40 110.4v200A30.4 30.4 0 00 70.4 340ZM480 370a20 20 0 00-40 0v40a20 20 0 00 40 0v-40Z" fill="#004CBF"/></svg>
