<svg xmlns="http://www.w3.org/2000/svg" fill="none" viewBox="0 0 560 520"><path d="M280 40h-40V20a20 20 0 00-20-20H120a20 20 0 00-20 20v20H60a60 60 0 00-60 60v360a60 60 0 00 60 60h220a60 60 0 00 60-60V100a60 60 0 00-60-60ZM140 40h60v40h-60V40Zm160 420a20 20 0 01-20 20H60a20 20 0 01-20-20V100a20 20 0 01 20-20h40v20a20 20 0 00 20 20h100a20 20 0 00 20-20V80h40a20 20 0 01 20 20v360Zm240-300h-50v-40a20 20 0 00-20-20h-60a20 20 0 00-20 20v40h-10a20 20 0 00 0 40v240a20 20 0 00 3.4 11l40 60a20.02 20.02 0 00 33.2 0l40-60A20 20 0 00 500 440V200h20v140a20 20 0 00 40 0V180a20 20 0 00-20-20Zm-110-20h20v20h-20v-20Zm30 294-20 30-20-30V200h40v234ZM260 200a20 20 0 01-20 20H100a20 20 0 11 0-40h140a20 20 0 01 20 20Zm-60 60a20 20 0 01-20 20h-80a20 20 0 11 0-40h80a20 20 0 01 20 20Z" fill="#004CBF"/></svg>
