<svg xmlns="http://www.w3.org/2000/svg" fill="none" viewBox="0 0 5600 5000"><path d="m3124 3312 1364-1366a200 200 0 00 58-170l-128-890 212-212 284-284a200 200 0 00 58-140A199.9 199.9 0 00 4849 56.2 200 200 0 00 4630 100l-494 502-892-126a200 200 0 00-170 56L554 3054a200 200 0 00 0 282l142 142-284 284a200.2 200.2 0 00-282 284L978 4900a200 200 0 00 282 0 200 200 0 00 0-282l282-284 140 142a200 200 0 00 142 58 200 200 0 00 142-58l648-648 508-506 2-10ZM978 4326l-282-282 282-284 282 284-282 282Zm848-282L1684 3900l-566-564-140-140 2308-2310 744 106 106 742-1154 1154-424-424a200 200 0 00-342.1 141 200 200 0 00 58.1 141L2700 3170l-226 224-424-424a200 200 0 00-325.8 219c10.2 24.3 25 46.4 43.8 65L2200 3678l-374 366Zm3654-586-362-848a200 200 0 00-368 0l-364 848a600 600 0 10 1094 0ZM5096 3800a200 200 0 01-326 0 200 200 0 01-16-184l180-420 180 420a200 200 0 01-18 184Z" fill="#004CBF"/></svg>
