<svg xmlns="http://www.w3.org/2000/svg" fill="none" viewBox="0 0 5400 5400"><path d="M5032 750 4650 368a1132 1132 0 00-1600 0l-374 376L368 3052a1132 1132 0 00 0 1600l382 382a1132 1132 0 00 1600 0l376-376 2306-2310a1132 1132 0 00 0-1598Zm-2450 3482L1168 2818l1650-1650 1414 1414-1650 1650Zm-1550 518L650 4368a732 732 0 01 0-1032L886 3100 2300 4514l-236 236a732 732 0 01-1032 0ZM4750 2064 4514 2300 3100 886l236-236a734 734 0 01 1032 0l382 382a732 732 0 01 0 1032Zm-2558 778a200 200 0 11-400 0 200 200 0 01 400 0Zm566 566a200 200 0 11-400 0 200 200 0 01 400 0Zm-342-800a200 200 0 11 200-200 200.1 200.1 0 01-200 208v-8Zm766 366a200 200 0 11-12.9-71c9.6 25.2 14 52 13 79v-8Zm-540-990a200 200 0 11 0 8v-8Zm966 566a200 200 0 11-12.9-71c9.6 25.2 14 52 12.9 79v-8Z" fill="#004CBF"/></svg>
